<svg width="18" height="22" viewBox="0 0 18 22" fill="none" xmlns="http://www.w3.org/2000/svg">
<path d="M5.20117 17.5703H12.8184C13.0137 17.5703 13.1797 17.5052 13.3164 17.375C13.4531 17.2383 13.5215 17.0755 13.5215 16.8867C13.5215 16.6849 13.4531 16.5189 13.3164 16.3887C13.1797 16.252 13.0137 16.1836 12.8184 16.1836H5.20117C4.99284 16.1836 4.82031 16.252 4.68359 16.3887C4.54688 16.5189 4.47852 16.6849 4.47852 16.8867C4.47852 17.0755 4.54688 17.2383 4.68359 17.375C4.82031 17.5052 4.99284 17.5703 5.20117 17.5703ZM5.20117 13.9082H12.8184C13.0137 13.9082 13.1797 13.8431 13.3164 13.7129C13.4531 13.5827 13.5215 13.4167 13.5215 13.2148C13.5215 13.0195 13.4531 12.8568 13.3164 12.7266C13.1797 12.5898 13.0137 12.5215 12.8184 12.5215H5.20117C4.99284 12.5215 4.82031 12.5898 4.68359 12.7266C4.54688 12.8568 4.47852 13.0195 4.47852 13.2148C4.47852 13.4167 4.54688 13.5827 4.68359 13.7129C4.82031 13.8431 4.99284 13.9082 5.20117 13.9082ZM3.79492 21.5352C2.74023 21.5352 1.94271 21.2617 1.40234 20.7148C0.86849 20.1745 0.601562 19.377 0.601562 18.3223V3.58594C0.601562 2.53776 0.86849 1.74023 1.40234 1.19336C1.94271 0.646484 2.74023 0.373047 3.79492 0.373047H8.24805V7.77539C8.24805 8.98633 8.85026 9.5918 10.0547 9.5918H17.3887V18.3223C17.3887 19.377 17.1185 20.1745 16.5781 20.7148C16.0378 21.2617 15.2435 21.5352 14.1953 21.5352H3.79492ZM10.25 8.14648C9.8724 8.14648 9.68359 7.96419 9.68359 7.59961V0.470703C9.90495 0.496745 10.1263 0.587891 10.3477 0.744141C10.5755 0.900391 10.8132 1.10221 11.0605 1.34961L16.3926 6.76953C16.6465 7.02995 16.8516 7.27083 17.0078 7.49219C17.1641 7.71354 17.2552 7.93164 17.2812 8.14648H10.25Z" fill="#E42F5A"/>
</svg>
